<?xml version="1.0" encoding="UTF-8" standalone="no"?>
<!DOCTYPE svg PUBLIC "-//W3C//DTD SVG 1.1//EN"
 "http://www.w3.org/Graphics/SVG/1.1/DTD/svg11.dtd">
<!-- Generated by graphviz version 3.0.0 (20221109.1736)
 -->
<!-- Pages: 1 -->
<svg width="1371pt" height="669pt"
 viewBox="0.00 0.00 1370.50 668.68" xmlns="http://www.w3.org/2000/svg" xmlns:xlink="http://www.w3.org/1999/xlink">
<g id="graph0" class="graph" transform="scale(1 1) rotate(0) translate(36 632.68)">
<polygon fill="white" stroke="transparent" points="-36,36 -36,-632.68 1334.5,-632.68 1334.5,36 -36,36"/>
<!-- frontend -->
<g id="node1" class="node">
<title>frontend</title>
<polygon fill="none" stroke="black" points="1298.5,-404.79 1066.5,-404.79 1066.5,-400.79 1062.5,-400.79 1062.5,-396.79 1066.5,-396.79 1066.5,-374.79 1062.5,-374.79 1062.5,-370.79 1066.5,-370.79 1066.5,-366.79 1298.5,-366.79 1298.5,-404.79"/>
<polyline fill="none" stroke="black" points="1066.5,-400.79 1070.5,-400.79 1070.5,-396.79 1066.5,-396.79 "/>
<polyline fill="none" stroke="black" points="1066.5,-374.79 1070.5,-374.79 1070.5,-370.79 1066.5,-370.79 "/>
<text text-anchor="middle" x="1182.5" y="-389.59" font-family="Times,serif" font-size="14.00">frontend</text>
<text text-anchor="middle" x="1182.5" y="-374.59" font-family="Times,serif" font-size="14.00">(sprysio/homew&#45;frontend:latest)</text>
</g>
<!-- public -->
<g id="node2" class="node">
<title>public</title>
<polygon fill="none" stroke="black" points="1268.36,-186.56 1201.5,-199 1134.64,-186.56 1160.18,-166.44 1242.82,-166.44 1268.36,-186.56"/>
<text text-anchor="middle" x="1201.5" y="-177.3" font-family="Times,serif" font-size="14.00">net:public</text>
</g>
<!-- frontend&#45;&gt;public -->
<g id="edge1" class="edge">
<title>frontend&#45;&gt;public</title>
<path fill="none" stroke="black" d="M1184.22,-366.44C1187.59,-330.47 1195.07,-250.59 1198.99,-208.74"/>
<polygon fill="black" stroke="black" points="1202.48,-209.02 1199.93,-198.73 1195.51,-208.36 1202.48,-209.02"/>
</g>
<!-- api&#45;gateway -->
<g id="node4" class="node">
<title>api&#45;gateway</title>
<polygon fill="none" stroke="black" points="1067,-275 838,-275 838,-271 834,-271 834,-267 838,-267 838,-245 834,-245 834,-241 838,-241 838,-237 1067,-237 1067,-275"/>
<polyline fill="none" stroke="black" points="838,-271 842,-271 842,-267 838,-267 "/>
<polyline fill="none" stroke="black" points="838,-245 842,-245 842,-241 838,-241 "/>
<text text-anchor="middle" x="952.5" y="-259.8" font-family="Times,serif" font-size="14.00">api&#45;gateway</text>
<text text-anchor="middle" x="952.5" y="-244.8" font-family="Times,serif" font-size="14.00">(sprysio/homew&#45;gateway:latest)</text>
</g>
<!-- frontend&#45;&gt;api&#45;gateway -->
<g id="edge3" class="edge">
<title>frontend&#45;&gt;api&#45;gateway</title>
<path fill="none" stroke="black" stroke-dasharray="1,5" d="M1150.03,-366.76C1109.14,-344.03 1038.82,-304.96 994.04,-280.08"/>
<polygon fill="black" stroke="black" points="995.61,-276.95 985.17,-275.15 992.21,-283.07 995.61,-276.95"/>
</g>
<!-- 0.0.0.080 -->
<g id="node3" class="node">
<title>0.0.0.080</title>
<ellipse fill="none" stroke="black" cx="1182.5" cy="-546.63" rx="50.09" ry="50.09"/>
<text text-anchor="middle" x="1182.5" y="-542.93" font-family="Times,serif" font-size="14.00">0.0.0.0:80</text>
</g>
<!-- 0.0.0.080&#45;&gt;frontend -->
<g id="edge2" class="edge">
<title>0.0.0.080&#45;&gt;frontend</title>
<path fill="none" stroke="black" d="M1182.5,-496.25C1182.5,-469.64 1182.5,-437.75 1182.5,-415.28"/>
<polygon fill="black" stroke="black" points="1186,-415.07 1182.5,-405.07 1179,-415.07 1186,-415.07"/>
<text text-anchor="middle" x="1190.5" y="-467.39" font-family="Times,serif" font-size="14.00">80</text>
</g>
<!-- api&#45;gateway&#45;&gt;public -->
<g id="edge4" class="edge">
<title>api&#45;gateway&#45;&gt;public</title>
<path fill="none" stroke="black" d="M1014.05,-236.96C1058.13,-224.03 1116.49,-206.92 1156.31,-195.25"/>
<polygon fill="black" stroke="black" points="1157.4,-198.58 1166.01,-192.4 1155.43,-191.86 1157.4,-198.58"/>
</g>
<!-- services -->
<g id="node5" class="node">
<title>services</title>
<polygon fill="none" stroke="black" points="804.64,-111.56 728.5,-124 652.36,-111.56 681.44,-91.44 775.56,-91.44 804.64,-111.56"/>
<text text-anchor="middle" x="728.5" y="-102.3" font-family="Times,serif" font-size="14.00">net:services</text>
</g>
<!-- api&#45;gateway&#45;&gt;services -->
<g id="edge5" class="edge">
<title>api&#45;gateway&#45;&gt;services</title>
<path fill="none" stroke="black" d="M950.1,-236.93C946.38,-215.98 937.2,-181.78 915.5,-162 886.35,-135.43 844.99,-121.66 808.57,-114.53"/>
<polygon fill="black" stroke="black" points="808.91,-111.04 798.44,-112.69 807.66,-117.92 808.91,-111.04"/>
</g>
<!-- cache -->
<g id="node6" class="node">
<title>cache</title>
<polygon fill="none" stroke="black" points="1112.54,-111.56 1048.5,-124 984.46,-111.56 1008.92,-91.44 1088.08,-91.44 1112.54,-111.56"/>
<text text-anchor="middle" x="1048.5" y="-102.3" font-family="Times,serif" font-size="14.00">net:cache</text>
</g>
<!-- api&#45;gateway&#45;&gt;cache -->
<g id="edge6" class="edge">
<title>api&#45;gateway&#45;&gt;cache</title>
<path fill="none" stroke="black" d="M957.71,-236.78C963.84,-217.2 975.28,-185.7 991.5,-162 1000.31,-149.12 1012.51,-136.86 1023.36,-127.19"/>
<polygon fill="black" stroke="black" points="1025.67,-129.82 1030.96,-120.64 1021.1,-124.52 1025.67,-129.82"/>
</g>
<!-- auth&#45;service -->
<g id="node8" class="node">
<title>auth&#45;service</title>
<polygon fill="none" stroke="black" points="412.5,-200 208.5,-200 208.5,-196 204.5,-196 204.5,-192 208.5,-192 208.5,-170 204.5,-170 204.5,-166 208.5,-166 208.5,-162 412.5,-162 412.5,-200"/>
<polyline fill="none" stroke="black" points="208.5,-196 212.5,-196 212.5,-192 208.5,-192 "/>
<polyline fill="none" stroke="black" points="208.5,-170 212.5,-170 212.5,-166 208.5,-166 "/>
<text text-anchor="middle" x="310.5" y="-184.8" font-family="Times,serif" font-size="14.00">auth&#45;service</text>
<text text-anchor="middle" x="310.5" y="-169.8" font-family="Times,serif" font-size="14.00">(sprysio/homew&#45;auth:latest)</text>
</g>
<!-- api&#45;gateway&#45;&gt;auth&#45;service -->
<g id="edge8" class="edge">
<title>api&#45;gateway&#45;&gt;auth&#45;service</title>
<path fill="none" stroke="black" stroke-dasharray="1,5" d="M837.82,-245.04C732.54,-235.46 572,-219.72 422.94,-200.15"/>
<polygon fill="black" stroke="black" points="423.06,-196.64 412.68,-198.8 422.14,-203.58 423.06,-196.64"/>
</g>
<!-- workout&#45;service -->
<g id="node9" class="node">
<title>workout&#45;service</title>
<polygon fill="none" stroke="black" points="906.5,-200 676.5,-200 676.5,-196 672.5,-196 672.5,-192 676.5,-192 676.5,-170 672.5,-170 672.5,-166 676.5,-166 676.5,-162 906.5,-162 906.5,-200"/>
<polyline fill="none" stroke="black" points="676.5,-196 680.5,-196 680.5,-192 676.5,-192 "/>
<polyline fill="none" stroke="black" points="676.5,-170 680.5,-170 680.5,-166 676.5,-166 "/>
<text text-anchor="middle" x="791.5" y="-184.8" font-family="Times,serif" font-size="14.00">workout&#45;service</text>
<text text-anchor="middle" x="791.5" y="-169.8" font-family="Times,serif" font-size="14.00">(sprysio/homew&#45;workout:latest)</text>
</g>
<!-- api&#45;gateway&#45;&gt;workout&#45;service -->
<g id="edge9" class="edge">
<title>api&#45;gateway&#45;&gt;workout&#45;service</title>
<path fill="none" stroke="black" stroke-dasharray="1,5" d="M912.7,-236.96C890.93,-227.08 863.77,-214.77 840.68,-204.3"/>
<polygon fill="black" stroke="black" points="841.95,-201.03 831.4,-200.09 839.06,-207.41 841.95,-201.03"/>
</g>
<!-- exercise&#45;service -->
<g id="node10" class="node">
<title>exercise&#45;service</title>
<polygon fill="none" stroke="black" points="658,-200 431,-200 431,-196 427,-196 427,-192 431,-192 431,-170 427,-170 427,-166 431,-166 431,-162 658,-162 658,-200"/>
<polyline fill="none" stroke="black" points="431,-196 435,-196 435,-192 431,-192 "/>
<polyline fill="none" stroke="black" points="431,-170 435,-170 435,-166 431,-166 "/>
<text text-anchor="middle" x="544.5" y="-184.8" font-family="Times,serif" font-size="14.00">exercise&#45;service</text>
<text text-anchor="middle" x="544.5" y="-169.8" font-family="Times,serif" font-size="14.00">(sprysio/homew&#45;exercise:latest)</text>
</g>
<!-- api&#45;gateway&#45;&gt;exercise&#45;service -->
<g id="edge10" class="edge">
<title>api&#45;gateway&#45;&gt;exercise&#45;service</title>
<path fill="none" stroke="black" stroke-dasharray="1,5" d="M851.65,-236.96C792.07,-226.3 716.58,-212.79 655.34,-201.83"/>
<polygon fill="black" stroke="black" points="655.71,-198.34 645.25,-200.03 654.48,-205.23 655.71,-198.34"/>
</g>
<!-- redis -->
<g id="node11" class="node">
<title>redis</title>
<polygon fill="none" stroke="black" points="1116.5,-200 1000.5,-200 1000.5,-196 996.5,-196 996.5,-192 1000.5,-192 1000.5,-170 996.5,-170 996.5,-166 1000.5,-166 1000.5,-162 1116.5,-162 1116.5,-200"/>
<polyline fill="none" stroke="black" points="1000.5,-196 1004.5,-196 1004.5,-192 1000.5,-192 "/>
<polyline fill="none" stroke="black" points="1000.5,-170 1004.5,-170 1004.5,-166 1000.5,-166 "/>
<text text-anchor="middle" x="1058.5" y="-184.8" font-family="Times,serif" font-size="14.00">redis</text>
<text text-anchor="middle" x="1058.5" y="-169.8" font-family="Times,serif" font-size="14.00">(redis:7&#45;alpine)</text>
</g>
<!-- api&#45;gateway&#45;&gt;redis -->
<g id="edge11" class="edge">
<title>api&#45;gateway&#45;&gt;redis</title>
<path fill="none" stroke="black" stroke-dasharray="1,5" d="M978.7,-236.96C992.33,-227.57 1009.18,-215.97 1023.87,-205.85"/>
<polygon fill="black" stroke="black" points="1025.98,-208.64 1032.23,-200.09 1022.01,-202.88 1025.98,-208.64"/>
</g>
<!-- 0.0.0.08080 -->
<g id="node7" class="node">
<title>0.0.0.08080</title>
<ellipse fill="none" stroke="black" cx="952.5" cy="-385.79" rx="59.59" ry="59.59"/>
<text text-anchor="middle" x="952.5" y="-382.09" font-family="Times,serif" font-size="14.00">0.0.0.0:8080</text>
</g>
<!-- 0.0.0.08080&#45;&gt;api&#45;gateway -->
<g id="edge7" class="edge">
<title>0.0.0.08080&#45;&gt;api&#45;gateway</title>
<path fill="none" stroke="black" d="M952.5,-325.76C952.5,-311.74 952.5,-297.41 952.5,-285.48"/>
<polygon fill="black" stroke="black" points="956,-285.28 952.5,-275.28 949,-285.28 956,-285.28"/>
<text text-anchor="middle" x="968" y="-296.8" font-family="Times,serif" font-size="14.00">8080</text>
</g>
<!-- auth&#45;service&#45;&gt;services -->
<g id="edge12" class="edge">
<title>auth&#45;service&#45;&gt;services</title>
<path fill="none" stroke="black" d="M412.63,-162.27C446.06,-156.46 483.36,-149.96 517.5,-144 568.27,-135.13 625.9,-125.03 668.09,-117.62"/>
<polygon fill="black" stroke="black" points="668.95,-121.02 678.2,-115.84 667.74,-114.12 668.95,-121.02"/>
</g>
<!-- data -->
<g id="node12" class="node">
<title>data</title>
<polygon fill="none" stroke="black" points="598.19,-23.56 540.5,-36 482.81,-23.56 504.85,-3.44 576.15,-3.44 598.19,-23.56"/>
<text text-anchor="middle" x="540.5" y="-14.3" font-family="Times,serif" font-size="14.00">net:data</text>
</g>
<!-- auth&#45;service&#45;&gt;data -->
<g id="edge13" class="edge">
<title>auth&#45;service&#45;&gt;data</title>
<path fill="none" stroke="black" d="M392.41,-162C418.17,-153.65 445.58,-141.74 467.5,-125 495.75,-103.42 517.08,-67.73 529.18,-43.8"/>
<polygon fill="black" stroke="black" points="532.41,-45.16 533.65,-34.64 526.12,-42.09 532.41,-45.16"/>
</g>
<!-- postgres -->
<g id="node13" class="node">
<title>postgres</title>
<polygon fill="none" stroke="black" points="458.5,-125 358.5,-125 358.5,-121 354.5,-121 354.5,-117 358.5,-117 358.5,-95 354.5,-95 354.5,-91 358.5,-91 358.5,-87 458.5,-87 458.5,-125"/>
<polyline fill="none" stroke="black" points="358.5,-121 362.5,-121 362.5,-117 358.5,-117 "/>
<polyline fill="none" stroke="black" points="358.5,-95 362.5,-95 362.5,-91 358.5,-91 "/>
<text text-anchor="middle" x="408.5" y="-109.8" font-family="Times,serif" font-size="14.00">postgres</text>
<text text-anchor="middle" x="408.5" y="-94.8" font-family="Times,serif" font-size="14.00">(postgres:15)</text>
</g>
<!-- auth&#45;service&#45;&gt;postgres -->
<g id="edge14" class="edge">
<title>auth&#45;service&#45;&gt;postgres</title>
<path fill="none" stroke="black" stroke-dasharray="1,5" d="M334.72,-161.96C347.21,-152.65 362.61,-141.18 376.1,-131.13"/>
<polygon fill="black" stroke="black" points="378.29,-133.87 384.21,-125.09 374.1,-128.26 378.29,-133.87"/>
</g>
<!-- workout&#45;service&#45;&gt;services -->
<g id="edge15" class="edge">
<title>workout&#45;service&#45;&gt;services</title>
<path fill="none" stroke="black" d="M775.93,-161.96C767.65,-152.36 757.37,-140.46 748.51,-130.18"/>
<polygon fill="black" stroke="black" points="750.95,-127.65 741.76,-122.37 745.65,-132.23 750.95,-127.65"/>
</g>
<!-- workout&#45;service&#45;&gt;data -->
<g id="edge16" class="edge">
<title>workout&#45;service&#45;&gt;data</title>
<path fill="none" stroke="black" d="M804.03,-161.65C816.17,-141.36 830.46,-108.7 813.5,-87 787.93,-54.29 675.93,-35.03 603.57,-25.79"/>
<polygon fill="black" stroke="black" points="603.99,-22.32 593.63,-24.55 603.12,-29.26 603.99,-22.32"/>
</g>
<!-- workout&#45;service&#45;&gt;postgres -->
<g id="edge17" class="edge">
<title>workout&#45;service&#45;&gt;postgres</title>
<path fill="none" stroke="black" stroke-dasharray="1,5" d="M696.83,-161.96C625.48,-148.36 529.81,-130.12 468.64,-118.46"/>
<polygon fill="black" stroke="black" points="469.23,-115.01 458.76,-116.58 467.92,-121.89 469.23,-115.01"/>
</g>
<!-- exercise&#45;service&#45;&gt;services -->
<g id="edge18" class="edge">
<title>exercise&#45;service&#45;&gt;services</title>
<path fill="none" stroke="black" d="M589.98,-161.96C620.2,-149.97 659.49,-134.38 688.51,-122.87"/>
<polygon fill="black" stroke="black" points="689.92,-126.07 697.93,-119.13 687.34,-119.56 689.92,-126.07"/>
</g>
<!-- exercise&#45;service&#45;&gt;data -->
<g id="edge19" class="edge">
<title>exercise&#45;service&#45;&gt;data</title>
<path fill="none" stroke="black" d="M544.05,-161.84C543.35,-133.77 542.01,-79.62 541.19,-46.66"/>
<polygon fill="black" stroke="black" points="544.68,-46.27 540.93,-36.36 537.68,-46.44 544.68,-46.27"/>
</g>
<!-- exercise&#45;service&#45;&gt;postgres -->
<g id="edge20" class="edge">
<title>exercise&#45;service&#45;&gt;postgres</title>
<path fill="none" stroke="black" stroke-dasharray="1,5" d="M510.88,-161.96C492.82,-152.26 470.36,-140.21 451.09,-129.86"/>
<polygon fill="black" stroke="black" points="452.67,-126.74 442.2,-125.09 449.36,-132.9 452.67,-126.74"/>
</g>
<!-- redis&#45;&gt;cache -->
<g id="edge24" class="edge">
<title>redis&#45;&gt;cache</title>
<path fill="none" stroke="black" d="M1056.03,-161.96C1054.87,-153.49 1053.46,-143.22 1052.18,-133.87"/>
<polygon fill="black" stroke="black" points="1055.63,-133.27 1050.81,-123.84 1048.7,-134.22 1055.63,-133.27"/>
</g>
<!-- postgres&#45;&gt;data -->
<g id="edge21" class="edge">
<title>postgres&#45;&gt;data</title>
<path fill="none" stroke="black" d="M436.74,-86.93C445.63,-81.21 455.49,-74.86 464.5,-69 480.4,-58.66 498.1,-47.02 512.42,-37.57"/>
<polygon fill="black" stroke="black" points="514.44,-40.44 520.85,-32.01 510.58,-34.6 514.44,-40.44"/>
</g>
<!-- postgres_data -->
<g id="node14" class="node">
<title>postgres_data</title>
<path fill="none" stroke="black" d="M109,-32.73C109,-34.53 84.57,-36 54.5,-36 24.43,-36 0,-34.53 0,-32.73 0,-32.73 0,-3.27 0,-3.27 0,-1.47 24.43,0 54.5,0 84.57,0 109,-1.47 109,-3.27 109,-3.27 109,-32.73 109,-32.73"/>
<path fill="none" stroke="black" d="M109,-32.73C109,-30.92 84.57,-29.45 54.5,-29.45 24.43,-29.45 0,-30.92 0,-32.73"/>
<text text-anchor="middle" x="54.5" y="-14.3" font-family="Times,serif" font-size="14.00">postgres_data</text>
</g>
<!-- postgres&#45;&gt;postgres_data -->
<g id="edge22" class="edge">
<title>postgres&#45;&gt;postgres_data</title>
<path fill="none" stroke="black" stroke-dasharray="5,2" d="M348.12,-102.46C255.31,-97.99 86.1,-87.41 65.5,-69 59.09,-63.27 55.96,-54.74 54.53,-46.34"/>
<polygon fill="black" stroke="black" points="348.07,-105.96 358.22,-102.93 348.4,-98.97 348.07,-105.96"/>
<polygon fill="black" stroke="black" points="58.01,-45.96 53.54,-36.35 51.05,-46.65 58.01,-45.96"/>
<text text-anchor="middle" x="142.5" y="-57.8" font-family="Times,serif" font-size="14.00">/var/lib/postgresql/data</text>
</g>
<!-- ./db/init.sql -->
<g id="node15" class="node">
<title>./db/init.sql</title>
<path fill="none" stroke="black" d="M276.5,-32.73C276.5,-34.53 256.33,-36 231.5,-36 206.67,-36 186.5,-34.53 186.5,-32.73 186.5,-32.73 186.5,-3.27 186.5,-3.27 186.5,-1.47 206.67,0 231.5,0 256.33,0 276.5,-1.47 276.5,-3.27 276.5,-3.27 276.5,-32.73 276.5,-32.73"/>
<path fill="none" stroke="black" d="M276.5,-32.73C276.5,-30.92 256.33,-29.45 231.5,-29.45 206.67,-29.45 186.5,-30.92 186.5,-32.73"/>
<text text-anchor="middle" x="231.5" y="-14.3" font-family="Times,serif" font-size="14.00">./db/init.sql</text>
</g>
<!-- postgres&#45;&gt;./db/init.sql -->
<g id="edge23" class="edge">
<title>postgres&#45;&gt;./db/init.sql</title>
<path fill="none" stroke="black" stroke-dasharray="5,2" d="M348.4,-101.02C302.11,-96.55 243.56,-87.37 228.5,-69 223.31,-62.66 222.34,-54.22 223.2,-46.08"/>
<polygon fill="black" stroke="black" points="348.09,-104.5 358.37,-101.93 348.72,-97.53 348.09,-104.5"/>
<polygon fill="black" stroke="black" points="226.66,-46.58 225.07,-36.1 219.78,-45.28 226.66,-46.58"/>
<text text-anchor="middle" x="344.5" y="-57.8" font-family="Times,serif" font-size="14.00">/docker&#45;entrypoint&#45;initdb.d/init.sql</text>
</g>
</g>
</svg>
